<svg xmlns="http://www.w3.org/2000/svg" xmlns:xlink="http://www.w3.org/1999/xlink" width="500" zoomAndPan="magnify" viewBox="0 0 375 374.999991" height="500" preserveAspectRatio="xMidYMid meet" version="1.0"><defs><g/><clipPath id="c5dc5871b3"><path d="M 114.785156 209.089844 L 364 209.089844 L 364 242.839844 L 114.785156 242.839844 Z M 114.785156 209.089844 " clip-rule="nonzero"/></clipPath><clipPath id="f787c0b1d9"><path d="M 114.785156 221 L 139 221 L 139 233 L 114.785156 233 Z M 114.785156 221 " clip-rule="nonzero"/></clipPath><clipPath id="5c1cc92e1a"><path d="M 345 214 L 374 214 L 374 242.839844 L 345 242.839844 Z M 345 214 " clip-rule="nonzero"/></clipPath><clipPath id="ab3e775a30"><path d="M 77 124.535156 L 96 124.535156 L 96 139 L 77 139 Z M 77 124.535156 " clip-rule="nonzero"/></clipPath><clipPath id="650e12d087"><path d="M 68 124.535156 L 85 124.535156 L 85 149 L 68 149 Z M 68 124.535156 " clip-rule="nonzero"/></clipPath><clipPath id="da341c7e4c"><path d="M 86 147 L 156.523438 147 L 156.523438 228 L 86 228 Z M 86 147 " clip-rule="nonzero"/></clipPath><clipPath id="a8c30ad248"><path d="M 58 154 L 116 154 L 116 237.785156 L 58 237.785156 Z M 58 154 " clip-rule="nonzero"/></clipPath><clipPath id="d98966a1ff"><path d="M 19.273438 166 L 33 166 L 33 193 L 19.273438 193 Z M 19.273438 166 " clip-rule="nonzero"/></clipPath></defs><g clip-path="url(#c5dc5871b3)"><path fill="#6c62dd" d="M 72.917969 246.359375 C 90.980469 237.023438 112.050781 234.871094 132.078125 234.378906 C 153.640625 233.828125 175.144531 235.242188 196.582031 237.207031 C 218.269531 239.234375 239.894531 241.753906 261.640625 243.289062 C 272.453125 244.027344 283.328125 244.457031 294.199219 244.515625 C 304.398438 244.578125 314.71875 244.640625 324.917969 243.410156 C 335.175781 242.183594 345.4375 239.296875 353.300781 232.230469 C 360.179688 226.027344 365.15625 216.566406 363.25 207.164062 C 362.453125 203.234375 356.308594 204.15625 356.308594 208.085938 C 356.371094 216.441406 353.113281 223.507812 346.664062 228.789062 C 339.414062 234.75 329.710938 236.835938 320.679688 237.945312 C 300.160156 240.339844 279.273438 239.539062 258.691406 238.128906 C 216.917969 235.179688 175.265625 228.359375 133.308594 229.835938 C 111.929688 230.511719 90.304688 232.96875 71.691406 244.269531 C 70.339844 245.070312 71.503906 247.097656 72.917969 246.359375 Z M 72.917969 246.359375 " fill-opacity="1" fill-rule="nonzero"/></g><g clip-path="url(#f787c0b1d9)"><path fill="#6c62dd" d="M 81.027344 232.722656 C 99.335938 226.027344 118.257812 224.429688 137.609375 224.304688 C 138.652344 224.304688 139.019531 222.523438 137.851562 222.402344 C 118.5 219.511719 98.351562 224.121094 80.597656 231.921875 C 80.230469 232.109375 80.535156 232.90625 81.027344 232.722656 Z M 81.027344 232.722656 " fill-opacity="1" fill-rule="nonzero"/></g><g clip-path="url(#5c1cc92e1a)"><path fill="#6c62dd" d="M 346.113281 243.472656 C 353.175781 242.488281 359.6875 239.109375 364.601562 234.011719 C 367.121094 231.433594 369.273438 228.484375 370.746094 225.226562 C 371.976562 222.648438 374.25 218.039062 372.40625 215.398438 C 371.546875 214.167969 370.070312 213.984375 368.964844 214.96875 C 366.875 216.75 367.183594 220.804688 366.324219 223.382812 C 365.339844 226.332031 363.925781 229.097656 362.144531 231.617188 C 358.152344 237.082031 352.4375 241.078125 345.925781 242.859375 C 345.496094 242.917969 345.679688 243.535156 346.113281 243.472656 Z M 346.113281 243.472656 " fill-opacity="1" fill-rule="nonzero"/></g><g fill="#ffffff" fill-opacity="1"><g transform="translate(156.582959, 218.293361)"><g><path d="M 7.375 0 L 0.6875 -54.1875 L 11.03125 -54.1875 L 15 -17.328125 L 18.515625 -54.1875 L 28.859375 -54.1875 L 22.171875 0 Z M 7.375 0 "/></g></g></g><g fill="#ffffff" fill-opacity="1"><g transform="translate(186.124461, 218.293361)"><g><path d="M 2.390625 0 L 2.390625 -54.109375 L 24.0625 -54.109375 L 24.0625 -43.65625 L 13.421875 -43.65625 L 13.421875 -33.140625 L 23.625 -33.140625 L 23.625 -22.9375 L 13.421875 -22.9375 L 13.421875 -10.515625 L 24.765625 -10.515625 L 24.765625 0 Z M 2.390625 0 "/></g></g></g><g fill="#ffffff" fill-opacity="1"><g transform="translate(212.075632, 218.293361)"><g><path d="M 7.0625 0 L 7.0625 -43.71875 L 0.625 -43.71875 L 0.625 -54.109375 L 24.3125 -54.109375 L 24.3125 -43.71875 L 17.890625 -43.71875 L 17.890625 0 Z M 7.0625 0 "/></g></g></g><g fill="#ffffff" fill-opacity="1"><g transform="translate(237.01899, 218.293361)"><g><path d="M 7.0625 0 L 7.0625 -43.71875 L 0.625 -43.71875 L 0.625 -54.109375 L 24.3125 -54.109375 L 24.3125 -43.71875 L 17.890625 -43.71875 L 17.890625 0 Z M 7.0625 0 "/></g></g></g><g fill="#ffffff" fill-opacity="1"><g transform="translate(261.962348, 218.293361)"><g><path d="M 0.9375 0 L 6.171875 -54.109375 L 24.5 -54.109375 L 29.671875 0 L 19.40625 0 L 18.640625 -8.75 L 12.09375 -8.75 L 11.46875 0 Z M 12.921875 -17.390625 L 17.828125 -17.390625 L 15.4375 -44.921875 L 14.9375 -44.921875 Z M 12.921875 -17.390625 "/></g></g></g><g fill="#ffffff" fill-opacity="1"><g transform="translate(292.511662, 218.293361)"><g><path d="M 2.390625 0 L 2.390625 -54.109375 L 13.546875 -54.109375 L 18.515625 -28.21875 L 18.515625 -54.109375 L 28.984375 -54.109375 L 28.984375 0 L 18.390625 0 L 12.984375 -27.09375 L 12.984375 0 Z M 2.390625 0 "/></g></g></g><g fill="#ffffff" fill-opacity="1"><g transform="translate(323.879825, 218.293361)"><g><path d="M 15.3125 0.5 C 10.9375 0.5 7.613281 -0.832031 5.34375 -3.5 C 3.082031 -6.164062 1.953125 -9.910156 1.953125 -14.734375 L 1.953125 -40.515625 C 1.953125 -45.171875 3.082031 -48.6875 5.34375 -51.0625 C 7.613281 -53.4375 10.9375 -54.625 15.3125 -54.625 C 19.675781 -54.625 22.992188 -53.4375 25.265625 -51.0625 C 27.535156 -48.6875 28.671875 -45.171875 28.671875 -40.515625 L 28.671875 -14.734375 C 28.671875 -9.867188 27.535156 -6.113281 25.265625 -3.46875 C 22.992188 -0.820312 19.675781 0.5 15.3125 0.5 Z M 15.3125 -9.453125 C 16.28125 -9.453125 16.929688 -9.867188 17.265625 -10.703125 C 17.597656 -11.546875 17.765625 -12.722656 17.765625 -14.234375 L 17.765625 -40.703125 C 17.765625 -41.878906 17.609375 -42.832031 17.296875 -43.5625 C 16.984375 -44.300781 16.34375 -44.671875 15.375 -44.671875 C 13.5625 -44.671875 12.65625 -43.304688 12.65625 -40.578125 L 12.65625 -14.171875 C 12.65625 -12.617188 12.84375 -11.441406 13.21875 -10.640625 C 13.601562 -9.847656 14.300781 -9.453125 15.3125 -9.453125 Z M 15.3125 -9.453125 "/></g></g></g><g clip-path="url(#ab3e775a30)"><path fill="#6c62dd" d="M 77.101562 124.566406 C 78.667969 125.109375 80.308594 125.414062 81.964844 125.511719 C 83.734375 125.652344 85.519531 125.550781 87.285156 125.796875 C 89.136719 126.074219 90.800781 127.050781 92.214844 128.242188 C 94.488281 130.03125 95.324219 133.171875 94.941406 135.957031 C 94.78125 136.871094 94.480469 137.949219 93.582031 138.390625 C 92.773438 138.75 91.953125 138.117188 91.621094 137.40625 C 90.878906 136.078125 91.402344 134.429688 90.613281 133.121094 C 90.378906 132.691406 89.953125 132.425781 89.507812 132.265625 C 89.667969 133 89.886719 133.789062 89.570312 134.511719 C 89.324219 135.136719 88.621094 135.503906 87.96875 135.398438 C 87.195312 135.304688 86.667969 134.632812 86.351562 133.976562 C 85.816406 132.96875 85.75 131.792969 85.246094 130.773438 C 84.652344 129.480469 83.695312 128.207031 82.269531 127.789062 C 80.382812 127.0625 78.3125 126.28125 77.101562 124.566406 Z M 77.101562 124.566406 " fill-opacity="1" fill-rule="nonzero"/></g><g clip-path="url(#650e12d087)"><path fill="#6c62dd" d="M 70.109375 127.988281 C 70.542969 126.777344 71.046875 125.558594 71.863281 124.546875 C 73.847656 127.476562 77.285156 128.882812 80.550781 129.84375 C 82.59375 131.9375 84.007812 134.703125 84.257812 137.636719 C 84.464844 139.683594 84.128906 141.734375 83.648438 143.722656 C 79.570312 143.191406 75.632812 145.289062 72.789062 148.0625 C 70.445312 145.644531 69.164062 142.363281 68.804688 139.046875 C 68.414062 135.324219 68.882812 131.519531 70.109375 127.988281 Z M 70.109375 127.988281 " fill-opacity="1" fill-rule="nonzero"/></g><path fill="#6c62dd" d="M 78.660156 147.984375 C 80.21875 147.296875 81.894531 146.703125 83.625 146.785156 C 83.628906 148.242188 83.640625 149.699219 83.621094 151.15625 C 81.71875 151.714844 79.980469 152.707031 78.367188 153.839844 C 77.519531 154.464844 76.625 155.0625 75.976562 155.90625 C 75.757812 156.171875 75.550781 156.460938 75.253906 156.648438 C 74.945312 154.910156 74.636719 153.175781 74.335938 151.433594 C 75.542969 150.03125 76.964844 148.761719 78.660156 147.984375 Z M 78.660156 147.984375 " fill-opacity="1" fill-rule="nonzero"/><g clip-path="url(#da341c7e4c)"><path fill="#6c62dd" d="M 106.214844 148.398438 C 110.90625 147.292969 115.765625 146.757812 120.582031 147.132812 C 127.234375 147.65625 133.6875 149.976562 139.300781 153.550781 C 143.171875 155.976562 146.675781 159.035156 149.375 162.738281 C 154.277344 169.371094 156.585938 177.757812 156.230469 185.964844 C 156.054688 189.289062 155.503906 192.640625 154.175781 195.714844 C 153.382812 197.605469 152.078125 199.234375 150.59375 200.628906 C 148.71875 202.386719 146.339844 203.644531 143.78125 204.019531 C 140.128906 204.582031 136.375 203.5 133.289062 201.546875 C 131.867188 200.667969 130.699219 199.433594 129.257812 198.578125 C 126.796875 197 123.8125 196.191406 120.890625 196.550781 C 118.25 196.839844 115.757812 197.886719 113.449219 199.164062 C 110.9375 200.578125 108.847656 202.835938 107.863281 205.570312 C 107.335938 207.035156 107.148438 208.710938 107.769531 210.175781 C 108.226562 211.292969 109.203125 212.140625 110.320312 212.5625 C 111.722656 213.113281 113.257812 213.097656 114.738281 212.980469 C 116.710938 212.980469 118.71875 213.847656 119.964844 215.402344 C 120.933594 216.625 121.140625 218.308594 120.761719 219.796875 C 120.03125 222.71875 117.957031 225.019531 116.019531 227.226562 C 114.972656 226.386719 114.105469 225.355469 113.128906 224.4375 C 106.109375 217.464844 99.074219 210.507812 92.148438 203.445312 C 91.222656 195.992188 90.441406 188.507812 89.566406 181.042969 C 88.640625 172.894531 87.714844 164.746094 86.785156 156.597656 C 92.804688 152.925781 99.34375 150.039062 106.214844 148.398438 M 105.046875 154.90625 C 104.132812 155.21875 103.441406 155.933594 102.871094 156.683594 C 102.453125 157.230469 101.789062 157.601562 101.09375 157.578125 C 100.105469 157.5625 99.230469 157.050781 98.339844 156.6875 C 97.148438 156.207031 95.648438 156.929688 95.308594 158.171875 C 95.050781 159.003906 95.390625 159.851562 95.773438 160.585938 C 96.042969 161.160156 96.453125 161.871094 96.058594 162.488281 C 95.644531 162.988281 95.128906 163.414062 94.84375 164.015625 C 94.417969 164.75 94.371094 165.800781 95.054688 166.402344 C 95.839844 167.054688 96.953125 167.335938 97.511719 168.25 C 97.746094 168.667969 97.375 169.078125 97.273438 169.480469 C 96.878906 170.910156 97.652344 172.578125 99.015625 173.183594 C 100.050781 173.652344 101.253906 173.515625 102.300781 173.148438 C 103.027344 172.890625 103.742188 172.433594 104.066406 171.703125 C 104.492188 170.832031 104.28125 169.828125 104.523438 168.914062 C 104.636719 168.457031 105.050781 168.128906 105.511719 168.070312 C 107.007812 167.824219 108.613281 167.683594 109.898438 166.789062 C 110.699219 166.246094 111.128906 165.25 111.023438 164.292969 C 110.929688 163.425781 110.703125 162.453125 109.953125 161.917969 C 109.296875 161.398438 108.402344 161.367188 107.734375 160.894531 C 107.246094 160.433594 107.585938 159.722656 107.824219 159.222656 C 108.386719 158.171875 108.320312 156.828125 107.648438 155.84375 C 107.109375 155.007812 106.003906 154.539062 105.046875 154.90625 M 123.8125 154.90625 C 122.992188 155.1875 122.265625 155.890625 122.171875 156.785156 C 122.082031 157.453125 122.644531 158 122.574219 158.671875 C 122.578125 159.304688 121.976562 159.699219 121.421875 159.832031 C 120.585938 160.027344 119.8125 160.617188 119.582031 161.472656 C 119.210938 162.664062 119.988281 163.964844 121.101562 164.425781 C 122.074219 164.84375 123.207031 165.210938 123.792969 166.171875 C 124.054688 166.597656 123.867188 167.121094 123.511719 167.425781 C 122.40625 168.542969 121.9375 170.3125 122.582031 171.78125 C 123.207031 173.203125 124.460938 174.414062 125.992188 174.785156 C 128.050781 175.292969 130.324219 174.042969 131.089844 172.085938 C 131.394531 171.265625 131.679688 170.382812 132.355469 169.785156 C 132.945312 169.246094 133.78125 169.132812 134.550781 169.140625 C 136.265625 169.191406 137.941406 168.359375 139.058594 167.082031 C 139.800781 166.234375 140.308594 165.0625 140.015625 163.929688 C 139.730469 162.773438 138.765625 161.941406 137.765625 161.378906 C 136.835938 160.855469 135.738281 160.914062 134.710938 160.914062 C 134.332031 160.890625 133.835938 160.929688 133.628906 160.539062 C 133.5 159.980469 133.808594 159.460938 134.003906 158.960938 C 134.386719 158.054688 134.4375 156.933594 133.886719 156.085938 C 133.554688 155.574219 132.921875 155.3125 132.328125 155.378906 C 131.402344 155.460938 130.585938 155.964844 129.835938 156.476562 C 129.078125 156.992188 128.03125 157.042969 127.226562 156.601562 C 126.617188 156.3125 126.207031 155.765625 125.761719 155.285156 C 125.269531 154.769531 124.460938 154.671875 123.8125 154.90625 M 139.191406 175.234375 C 138.304688 175.476562 137.824219 176.40625 137.742188 177.269531 C 137.582031 178.320312 138.042969 179.492188 137.421875 180.453125 C 137.148438 180.9375 136.550781 180.941406 136.074219 181.003906 C 135.136719 181.128906 134.273438 181.804688 134.03125 182.734375 C 133.652344 184.007812 134.40625 185.421875 135.574219 185.988281 C 136.789062 186.480469 138 187.597656 137.847656 189.023438 C 137.597656 190.21875 138.082031 191.484375 138.953125 192.316406 C 139.957031 193.304688 141.550781 193.558594 142.855469 193.097656 C 144.355469 192.476562 144.988281 190.71875 144.960938 189.199219 C 144.988281 188.53125 144.476562 188.003906 144.476562 187.34375 C 144.429688 186.6875 144.683594 185.933594 145.3125 185.632812 C 145.953125 185.296875 146.6875 185.527344 147.375 185.425781 C 148.339844 185.3125 149.210938 184.703125 149.714844 183.878906 C 150.492188 182.582031 150.472656 180.75 149.425781 179.601562 C 148.78125 178.871094 147.773438 178.605469 146.832031 178.59375 C 145.777344 178.535156 144.628906 178.753906 143.671875 178.191406 C 142.886719 177.757812 142.675781 176.8125 142.058594 176.21875 C 141.332031 175.46875 140.242188 174.949219 139.191406 175.234375 M 110.414062 183.375 C 108.277344 183.867188 106.222656 184.882812 104.664062 186.4375 C 103.375 187.820312 102.25 189.367188 101.40625 191.0625 C 100.207031 193.464844 99.628906 196.257812 100.1875 198.917969 C 100.527344 200.300781 101.421875 201.6875 102.835938 202.152344 C 103.492188 202.402344 104.363281 202.210938 104.667969 201.527344 C 105.859375 199.292969 107.394531 197.1875 109.445312 195.664062 C 111.542969 194.082031 114.074219 193.210938 116.617188 192.652344 C 117.839844 192.421875 118.929688 191.574219 119.433594 190.429688 C 119.992188 189.226562 119.863281 187.773438 119.214844 186.632812 C 118.507812 185.367188 117.316406 184.429688 116.019531 183.824219 C 114.273438 183.023438 112.265625 182.96875 110.414062 183.375 Z M 110.414062 183.375 " fill-opacity="1" fill-rule="nonzero"/></g><path fill="#6c62dd" d="M 38.875 158.070312 C 42.328125 154.914062 47.035156 153.351562 51.675781 153.394531 C 51.980469 158.480469 52.683594 163.65625 54.859375 168.320312 C 52.863281 170.324219 51.839844 173.023438 50.742188 175.574219 C 50.289062 176.683594 49.886719 177.8125 49.539062 178.960938 C 46.1875 177.9375 42.796875 176.949219 39.296875 176.601562 C 37.027344 176.359375 34.722656 176.429688 32.472656 176.824219 C 31.351562 170.042969 33.757812 162.703125 38.875 158.070312 Z M 38.875 158.070312 " fill-opacity="1" fill-rule="nonzero"/><g clip-path="url(#a8c30ad248)"><path fill="#6c62dd" d="M 76.210938 160.726562 C 77.429688 157.515625 80.363281 155.140625 83.632812 154.21875 C 85.488281 170.628906 87.34375 187.042969 89.195312 203.457031 C 89.265625 203.824219 89.183594 204.289062 89.519531 204.554688 C 96.78125 211.96875 104.027344 219.40625 111.300781 226.8125 C 112.742188 228.277344 114.289062 229.714844 115.207031 231.585938 C 115.695312 232.550781 115.929688 233.703125 115.585938 234.753906 C 115.207031 235.835938 114.355469 236.710938 113.367188 237.265625 C 112.292969 237.859375 110.96875 237.75 109.882812 237.253906 C 108.050781 236.425781 106.617188 234.972656 105.230469 233.5625 C 100.492188 228.847656 95.765625 224.125 91.019531 219.421875 C 91.375 223.007812 91.839844 226.585938 92.207031 230.175781 C 92.308594 231.820312 92.359375 233.519531 91.84375 235.113281 C 91.5625 236.011719 90.945312 236.847656 90.054688 237.21875 C 88.878906 237.691406 87.429688 237.601562 86.410156 236.8125 C 85.429688 236.058594 84.859375 234.910156 84.464844 233.769531 C 83.722656 231.628906 83.605469 229.347656 83.34375 227.113281 C 82.734375 221.390625 82.097656 215.671875 81.507812 209.949219 C 73.683594 202.089844 65.796875 194.289062 58.027344 186.375 C 58.992188 183.007812 60.199219 179.632812 62.308594 176.800781 C 68.167969 182.742188 74.011719 188.703125 79.847656 194.667969 C 78.640625 183.355469 77.386719 172.042969 76.210938 160.726562 Z M 76.210938 160.726562 " fill-opacity="1" fill-rule="nonzero"/></g><g clip-path="url(#d98966a1ff)"><path fill="#6c62dd" d="M 21.023438 176.382812 C 22.8125 172.371094 25.84375 169.050781 29.195312 166.28125 C 28.398438 168.292969 28.226562 170.488281 28.078125 172.628906 C 27.925781 176.210938 28.078125 179.898438 29.320312 183.296875 C 29.804688 184.742188 30.863281 185.878906 31.566406 187.210938 C 32.128906 188.257812 32.621094 189.382812 32.679688 190.585938 C 32.722656 191.34375 32.46875 192.195312 31.796875 192.625 C 31.230469 193.003906 30.5 192.867188 29.910156 192.640625 C 28.71875 192.171875 27.863281 191.074219 27.511719 189.871094 C 27.203125 188.945312 27.203125 187.960938 27.203125 186.996094 C 27.15625 185.714844 26.902344 184.40625 26.265625 183.277344 C 26.066406 182.90625 25.773438 182.597656 25.417969 182.375 C 24.914062 183.652344 25.386719 185.007812 25.484375 186.3125 C 25.535156 186.96875 25.597656 187.777344 25.050781 188.257812 C 24.320312 188.753906 23.34375 188.550781 22.621094 188.144531 C 21.304688 187.394531 20.480469 186.011719 20.058594 184.59375 C 19.277344 181.859375 19.898438 178.925781 21.023438 176.382812 Z M 21.023438 176.382812 " fill-opacity="1" fill-rule="nonzero"/></g><path fill="#6c62dd" d="M 72.011719 168.304688 C 72.308594 167.953125 72.582031 167.5625 72.972656 167.3125 C 73.6875 173.324219 74.398438 179.339844 75.09375 185.359375 C 72.648438 182.898438 70.203125 180.4375 67.746094 177.980469 C 67.375 177.574219 66.914062 177.234375 66.617188 176.769531 C 68.1875 173.816406 69.890625 170.902344 72.011719 168.304688 Z M 72.011719 168.304688 " fill-opacity="1" fill-rule="nonzero"/><path fill="#6c62dd" d="M 53.648438 176.074219 C 54.320312 174.261719 55.703125 172.875 56.988281 171.484375 C 58.050781 172.554688 59.140625 173.601562 60.191406 174.683594 C 58.054688 177.511719 57.019531 180.964844 55.929688 184.289062 C 54.847656 183.226562 53.78125 182.144531 52.707031 181.074219 C 52.773438 179.375 53.078125 177.675781 53.648438 176.074219 Z M 53.648438 176.074219 " fill-opacity="1" fill-rule="nonzero"/><path fill="#6c62dd" d="M 61.050781 193.761719 C 66.804688 199.433594 72.601562 205.070312 78.339844 210.757812 C 78.742188 213.738281 78.980469 216.75 79.328125 219.742188 C 79.734375 223.558594 80.132812 227.375 80.546875 231.191406 C 75.472656 229.132812 70.910156 225.914062 67.070312 222.03125 C 63.128906 217.945312 61.066406 212.363281 60.480469 206.785156 C 60.003906 202.449219 60.289062 198.050781 61.046875 193.761719 M 71.125 210.660156 C 70.292969 210.847656 69.910156 211.8125 69.027344 211.890625 C 68.1875 212.199219 67.453125 211.332031 66.625 211.625 C 65.734375 211.929688 65.382812 213.191406 65.957031 213.925781 C 66.425781 214.578125 67.472656 214.167969 67.917969 214.855469 C 68.421875 215.867188 67.164062 216.6875 67.382812 217.703125 C 67.605469 218.847656 68.945312 219.679688 70.066406 219.277344 C 70.5625 219.109375 70.875 218.589844 71.410156 218.527344 C 71.917969 218.679688 72.367188 219.039062 72.917969 219.050781 C 74.023438 219.117188 74.898438 217.839844 74.5 216.824219 C 74.328125 216.300781 73.660156 216.09375 73.628906 215.503906 C 73.582031 214.601562 74.355469 213.847656 74.171875 212.929688 C 73.90625 211.589844 72.574219 210.253906 71.125 210.660156 Z M 71.125 210.660156 " fill-opacity="1" fill-rule="nonzero"/><path fill="#6c62dd" d="M 95.359375 227.894531 C 97.066406 229.550781 98.765625 231.207031 100.464844 232.867188 C 100.707031 233.023438 100.464844 233.222656 100.289062 233.28125 C 98.796875 234.113281 97.050781 234.367188 95.359375 234.253906 C 95.371094 232.132812 95.363281 230.015625 95.359375 227.894531 Z M 95.359375 227.894531 " fill-opacity="1" fill-rule="nonzero"/></svg>